<?xml version="1.0" standalone="no"?><svg xmlns="http://www.w3.org/2000/svg" viewBox="0 0 1440 320"><path fill="#f422d9" fill-opacity="1" d="M0,192L26.7,170.7C53.3,149,107,107,160,112C213.3,117,267,171,320,176C373.3,181,427,139,480,138.7C533.3,139,587,181,640,181.3C693.3,181,747,139,800,144C853.3,149,907,203,960,197.3C1013.3,192,1067,128,1120,106.7C1173.3,85,1227,107,1280,112C1333.3,117,1387,107,1413,101.3L1440,96L1440,320L1413.3,320C1386.7,320,1333,320,1280,320C1226.7,320,1173,320,1120,320C1066.7,320,1013,320,960,320C906.7,320,853,320,800,320C746.7,320,693,320,640,320C586.7,320,533,320,480,320C426.7,320,373,320,320,320C266.7,320,213,320,160,320C106.7,320,53,320,27,320L0,320Z"></path></svg>