<?xml version="1.0" standalone="no"?><svg xmlns="http://www.w3.org/2000/svg" viewBox="0 0 1440 320"><path fill="#8b7bea" fill-opacity="1" d="M0,160L26.7,160C53.3,160,107,160,160,181.3C213.3,203,267,245,320,240C373.3,235,427,181,480,154.7C533.3,128,587,128,640,138.7C693.3,149,747,171,800,192C853.3,213,907,235,960,218.7C1013.3,203,1067,149,1120,149.3C1173.3,149,1227,203,1280,229.3C1333.3,256,1387,256,1413,256L1440,256L1440,320L1413.3,320C1386.7,320,1333,320,1280,320C1226.7,320,1173,320,1120,320C1066.7,320,1013,320,960,320C906.7,320,853,320,800,320C746.7,320,693,320,640,320C586.7,320,533,320,480,320C426.7,320,373,320,320,320C266.7,320,213,320,160,320C106.7,320,53,320,27,320L0,320Z"></path></svg>