<?xml version="1.0" standalone="no"?><svg xmlns="http://www.w3.org/2000/svg" viewBox="0 0 1440 320"><path fill="#a1fbfe" fill-opacity="1" d="M0,32L40,80C80,128,160,224,240,234.7C320,245,400,171,480,138.7C560,107,640,117,720,144C800,171,880,213,960,197.3C1040,181,1120,107,1200,96C1280,85,1360,139,1400,165.3L1440,192L1440,320L1400,320C1360,320,1280,320,1200,320C1120,320,1040,320,960,320C880,320,800,320,720,320C640,320,560,320,480,320C400,320,320,320,240,320C160,320,80,320,40,320L0,320Z"></path></svg>